<svg width="36" height="31" viewBox="0 0 36 31" fill="none" xmlns="http://www.w3.org/2000/svg">
<path d="M32.1433 27.6636C31.1201 27.6636 30.0964 27.6806 29.074 27.6569C28.5946 27.6462 28.3958 27.8289 28.4144 28.327C28.4368 28.9268 28.3914 29.5299 28.4252 30.1284C28.4619 30.7792 28.2293 31.0052 27.5809 30.9994C24.3024 30.9708 21.0234 30.9865 17.7449 30.9865C14.6056 30.9865 11.4662 30.9695 8.32735 30.9999C7.6547 31.0061 7.40051 30.7801 7.44806 30.0922C7.48783 29.5182 7.43379 28.9385 7.46146 28.3631C7.48697 27.8271 7.27428 27.6485 6.76504 27.6556C4.88153 27.6766 2.99802 27.6641 1.11451 27.6632C0.026858 27.6632 0.00524322 27.6632 0.0307486 26.5054C0.0687905 24.7786 -0.126607 23.0423 0.156114 21.3262C0.635529 18.4143 2.07334 16.1001 4.37358 14.3678C4.79031 14.0552 4.92994 13.8926 4.52359 13.4017C1.72102 10.0159 2.02579 4.98851 5.16987 2.11146C8.46352 -0.903166 13.2343 -0.651687 16.2643 2.69571C17.1241 3.6458 18.7465 3.65786 19.5882 2.72073C21.8508 0.200127 25.1077 -0.644987 28.1217 0.505208C31.1356 1.6554 33.1744 4.50476 33.2842 7.87762C33.3525 9.97298 32.675 11.8499 31.3315 13.4329C31.0055 13.8171 30.999 13.9935 31.4145 14.3089C34.3437 16.5333 35.8835 19.5042 35.8503 23.2987C35.8403 24.452 35.8174 25.6062 35.8606 26.7578C35.8857 27.4336 35.6929 27.7128 35.0025 27.6761C34.0519 27.6248 33.0965 27.6632 32.1433 27.6636ZM17.8871 28.8697C20.4446 28.8697 23.002 28.8576 25.559 28.8795C26.0981 28.884 26.3199 28.7111 26.2909 28.138C26.2555 27.4434 26.3082 26.7439 26.2728 26.0489C26.1132 22.9222 24.6525 20.6093 22.108 18.9767C21.741 18.7413 21.4095 18.7252 20.9979 18.9079C18.9752 19.8075 16.93 19.8119 14.9051 18.9199C14.4672 18.727 14.1218 18.748 13.7319 18.995C12.4735 19.7812 11.4216 20.8751 10.6687 22.1802C9.59873 24.0255 9.54469 26.048 9.57841 28.1072C9.58922 28.7129 9.79153 28.8853 10.3565 28.8799C12.8656 28.8554 15.3763 28.8701 17.8871 28.8701V28.8697ZM17.9061 17.3798C21.1181 17.3923 23.6751 14.8016 23.7144 11.4939C23.7529 8.27203 21.1354 5.47092 17.9688 5.49683C14.7266 5.52363 12.2565 8.03127 12.1674 11.4291C12.0827 14.6747 14.7076 17.3677 17.9061 17.3802V17.3798ZM4.70818 7.45953C4.69521 11.1071 6.976 13.8153 9.70637 14.0257C10.2191 14.065 10.4776 14.0221 10.3263 13.3481C9.50492 9.69336 11.0063 6.20124 14.1694 4.37567C14.6129 4.11927 14.6492 3.95713 14.2528 3.63195C12.3607 2.07975 10.2826 1.65719 8.06624 2.70867C5.88704 3.74407 4.7955 5.59331 4.70818 7.45953ZM31.1681 7.45506C31.0877 5.61877 30.0069 3.76193 27.8308 2.72028C25.6191 1.66166 23.5402 2.07171 21.6399 3.6181C21.189 3.98482 21.294 4.14652 21.7471 4.39889C23.6859 5.48477 24.9089 7.17276 25.508 9.35076C25.8703 10.6685 25.9209 12.0045 25.5586 13.3262C25.3892 13.9439 25.5824 14.1177 26.1435 14.0239C26.281 14.0011 26.421 13.9958 26.5568 13.9667C29.272 13.3874 31.1733 10.9655 31.1689 7.45595L31.1681 7.45506ZM31.0565 25.5455C31.7534 25.5455 32.4507 25.5254 33.1463 25.5522C33.617 25.5705 33.8288 25.4115 33.8081 24.8974C33.7787 24.1787 33.8358 23.455 33.7895 22.7386C33.5909 19.6732 32.226 17.3257 29.6948 15.6963C29.3797 15.4939 29.0606 15.3063 28.6534 15.4912C27.379 16.0719 26.0532 16.3292 24.6521 16.1965C24.0521 16.1394 23.874 16.7593 23.6146 17.1368C23.3907 17.4655 23.8662 17.5683 24.0573 17.7175C26.3817 19.5136 27.7996 21.8841 28.2566 24.8411C28.3404 25.3856 28.5025 25.5893 29.0347 25.5558C29.7078 25.5165 30.383 25.5473 31.0565 25.5473V25.5455ZM4.81625 25.5455C5.53645 25.5455 6.25622 25.5383 6.97772 25.5491C7.32356 25.554 7.52501 25.4754 7.58294 25.0537C8.02561 21.8953 9.52308 19.3979 12.0468 17.5562C12.17 17.4669 12.3494 17.4075 12.3144 17.1841C12.2625 16.8715 11.4537 16.1684 11.1528 16.1988C9.82828 16.3328 8.56165 16.0898 7.35123 15.5444C6.96605 15.3706 6.64442 15.4157 6.29816 15.6203C5.23255 16.2506 4.35845 17.0944 3.62874 18.1097C2.11571 20.209 1.97391 22.6314 2.0768 25.1136C2.09366 25.5276 2.35909 25.5473 2.65651 25.5464C3.37801 25.545 4.09778 25.5464 4.81755 25.5464L4.81625 25.5455Z" fill="#2639FF"/>
</svg>
