<svg width="32" height="32" viewBox="0 0 32 32" fill="none" xmlns="http://www.w3.org/2000/svg">
<path d="M0.00323109 17.0611C0.00323109 13.8715 -0.00296786 10.6816 0.00323109 7.49208C0.0123472 4.60738 2.15463 2.47968 5.04918 2.46619H5.23442C6.37357 2.464 6.37357 2.464 6.44686 1.36132C6.50229 0.522633 6.99383 0.00994307 7.745 0.000826964C8.52716 -0.00865379 9.03401 0.513152 9.08616 1.38064C9.15216 2.46546 9.15216 2.46582 10.2556 2.46546C11.4695 2.46546 12.6841 2.4527 13.8976 2.47202C14.3268 2.47968 14.4968 2.32325 14.476 1.89625C14.4557 1.6091 14.472 1.32055 14.5245 1.03751C14.6616 0.373494 15.1393 9.76755e-05 15.7912 9.76755e-05C16.4432 9.76755e-05 16.9081 0.373858 17.0675 1.0335C17.0896 1.13385 17.1039 1.23577 17.1102 1.33834C17.1959 2.46546 17.1955 2.46582 18.3018 2.46546C19.5365 2.46546 20.7716 2.44978 22.0059 2.47348C22.4657 2.48223 22.6498 2.32215 22.6054 1.86598C22.5872 1.64007 22.5888 1.41302 22.6101 1.18738C22.6633 0.486533 23.1738 0.00884914 23.8637 9.76755e-05C24.5828 -0.0079245 25.1035 0.478876 25.1564 1.21254C25.249 2.46145 25.249 2.46145 26.5256 2.46473C29.6193 2.47239 31.7014 4.56034 31.7036 7.66529C31.7069 9.90858 31.7109 12.1504 31.6999 14.3944C31.6956 15.3006 31.0917 15.853 30.2545 15.7567C29.5733 15.6802 29.1507 15.1646 29.1478 14.3623C29.1401 12.2222 29.1442 10.0822 29.1445 7.94205C29.1445 7.40202 29.0909 6.86781 28.8459 6.38065C28.3802 5.45372 27.5598 5.09856 26.5767 5.03146C26.4538 5.02307 26.3298 5.02599 26.2066 5.02599C25.0306 5.02599 25.1684 4.95306 25.1582 6.03788C25.1509 6.81311 24.8246 7.3021 24.2229 7.45708C23.3923 7.67149 22.6549 7.11468 22.6028 6.23552C22.5328 5.02563 22.5328 5.02563 21.3182 5.02563C20.1451 5.02563 18.9713 5.05152 17.7993 5.01432C17.2433 4.99682 17.0536 5.19883 17.1087 5.72866C17.1299 5.95423 17.1185 6.18167 17.0748 6.40398C16.9428 7.09681 16.4549 7.49427 15.7825 7.49099C15.1101 7.48771 14.6368 7.0804 14.4997 6.38794C14.4887 6.3276 14.4808 6.26675 14.476 6.20562C14.3615 5.02672 14.3618 5.02672 13.1483 5.02672C11.996 5.02672 10.8434 5.04277 9.69147 5.01943C9.23493 5.00995 9.05334 5.16857 9.08142 5.62547C9.10299 5.91245 9.08409 6.20103 9.02526 6.48275C8.87576 7.14494 8.39589 7.50375 7.73625 7.49172C7.10869 7.48187 6.66383 7.12452 6.49937 6.48967C6.47018 6.37007 6.45236 6.24798 6.44613 6.12503C6.37065 4.98442 6.3732 4.98442 5.22603 5.02927C3.56289 5.09418 2.57507 6.05028 2.56996 7.724C2.55124 13.9592 2.55124 20.1946 2.56996 26.4303C2.57507 28.1747 3.60154 29.1315 5.39705 29.1381C8.38057 29.1494 11.3648 29.1341 14.3483 29.1469C15.4758 29.1516 16.0873 30.1868 15.5302 31.1024C15.284 31.5065 14.9201 31.699 14.4501 31.6986C11.1369 31.6986 7.82303 31.7442 4.51133 31.6764C2.12145 31.6253 0.0272976 29.3711 0.0108886 26.9386C-0.01099 23.6462 0.00541896 20.3535 0.00541896 17.0611H0.00323109Z" fill="#2639FF"/>
<path d="M24.2121 16.6684C28.399 16.672 31.7089 20.0013 31.7052 24.2052C31.7016 28.3921 28.372 31.702 24.1684 31.6983C19.9815 31.6943 16.6716 28.3651 16.6753 24.1611C16.6793 19.9743 20.0085 16.6644 24.2121 16.6684ZM29.1315 24.199C29.1563 21.5408 26.9601 19.3168 24.2369 19.2435C21.5856 19.1706 19.2745 21.4536 19.249 24.1662C19.2242 26.8241 21.4208 29.0481 24.1436 29.1214C26.7949 29.1943 29.106 26.9127 29.1315 24.199Z" fill="#2639FF"/>
<path d="M7.78777 11.7322C8.51305 11.7409 9.08846 12.3214 9.07387 13.0292C9.05892 13.7446 8.47914 14.2916 7.74438 14.2829C7.01947 14.2741 6.44369 13.6932 6.45828 12.9858C6.47323 12.27 7.05338 11.7231 7.78777 11.7322Z" fill="#2639FF"/>
<path d="M18.5067 14.2832C17.7774 14.2832 17.1998 13.7161 17.2017 13.0047C17.2035 12.2933 17.7814 11.7303 18.5122 11.7318C19.2429 11.7332 19.8194 12.2984 19.8173 13.0102C19.8151 13.722 19.2375 14.2843 18.5067 14.2832Z" fill="#2639FF"/>
<path d="M14.4136 18.403C14.4034 19.1275 13.82 19.7033 13.1144 19.6873C12.3986 19.6709 11.8531 19.0903 11.8629 18.3556C11.8724 17.6307 12.4544 17.0553 13.1618 17.0713C13.878 17.0877 14.4235 17.6679 14.4136 18.403Z" fill="#2639FF"/>
<path d="M7.78777 22.4756C8.51305 22.4844 9.08846 23.0649 9.07387 23.7727C9.05892 24.4885 8.47914 25.0354 7.74438 25.0263C7.01947 25.0176 6.44369 24.4367 6.45828 23.7293C6.47323 23.0135 7.05338 22.4665 7.78777 22.4756Z" fill="#2639FF"/>
<path d="M9.07148 18.3899C9.06456 19.0743 8.43737 19.6913 7.75548 19.6843C7.0736 19.6774 6.45407 19.0506 6.461 18.3687C6.46792 17.6868 7.09511 17.0669 7.777 17.0738C8.45888 17.0808 9.07951 17.708 9.07148 18.3899Z" fill="#2639FF"/>
<path d="M13.1894 11.7325C13.9187 11.7559 14.4434 12.3306 14.4117 13.0744C14.3811 13.8037 13.8005 14.3197 13.0552 14.2807C12.3514 14.2442 11.8468 13.6896 11.8632 12.9712C11.8796 12.2365 12.4448 11.7085 13.1894 11.7325Z" fill="#2639FF"/>
<path d="M25.1559 12.9898C25.1639 13.7318 24.6231 14.281 23.8832 14.2821C23.1434 14.2832 22.6004 13.7351 22.607 12.9938C22.6128 12.2791 23.1361 11.7474 23.8468 11.7325C24.5918 11.7172 25.1478 12.2521 25.1559 12.9898Z" fill="#2639FF"/>
<path d="M14.4125 23.722C14.426 24.4652 13.8896 25.0194 13.1512 25.0256C12.4128 25.0318 11.8622 24.4892 11.8633 23.7494C11.8633 23.0339 12.3836 22.4964 13.0936 22.4767C13.8375 22.4556 14.3994 22.9862 14.4125 23.722Z" fill="#2639FF"/>
<path d="M22.8716 22.8936C22.8716 22.5034 22.8538 22.1122 22.8756 21.7235C22.9227 20.891 23.4266 20.3812 24.1785 20.3743C24.9304 20.3673 25.4431 20.8731 25.5062 21.6983C25.5216 21.862 25.5232 22.0266 25.5109 22.1906C25.4683 22.638 25.6123 22.8404 26.1082 22.8998C26.8838 22.991 27.2842 23.5233 27.2572 24.249C27.2313 24.9462 26.7467 25.4421 25.9809 25.4924C25.4272 25.5241 24.8722 25.5264 24.3182 25.4994C23.4197 25.4629 22.9208 24.9611 22.8764 24.0652C22.8548 23.6747 22.8713 23.2838 22.8716 22.8936Z" fill="#2639FF"/>
</svg>
