<svg width="31" height="31" viewBox="0 0 31 31" fill="none" xmlns="http://www.w3.org/2000/svg">
<path d="M15.5105 30.9981C11.1458 30.9981 6.78126 30.9981 2.41693 30.9981C0.808256 30.9969 0.0073739 30.1994 0.00449303 28.5991C0.00449303 27.4143 0.0102548 26.2289 0.00449303 25.0441C-0.00414959 24.128 0.383615 23.4605 1.20466 23.0531C1.62585 22.8436 1.94159 22.5663 1.94966 22.0519C1.9583 21.5081 1.62642 21.2232 1.18623 21.0017C0.391106 20.6006 0.00161216 19.9515 0.00161216 19.0613C0.00564537 17.7758 -0.00703045 16.4897 0.00622155 15.206C0.0188974 13.9573 0.891225 13.0274 2.13403 13.0918C3.04727 13.139 3.65398 12.8099 4.27625 12.1798C7.99084 8.41877 11.744 4.69574 15.4851 0.958899C16.7625 -0.314528 17.863 -0.319131 19.1306 0.942211C19.928 1.73688 20.7185 2.53788 21.5206 3.32737C22.1918 3.98854 22.3681 4.77227 22.0835 5.64808C21.9343 6.10842 21.9187 6.51525 22.2748 6.87374C22.6308 7.23223 23.0589 7.219 23.5072 7.06766C24.4245 6.75635 25.2 6.9894 25.8695 7.67071C26.6871 8.50163 27.5151 9.3222 28.3436 10.1451C29.0621 10.8563 29.3807 11.6659 28.9728 12.6528C28.8674 12.9106 28.8789 13.0182 29.2033 13.093C30.4351 13.3761 30.9894 14.104 30.9957 15.3677C31.0003 16.5726 30.9859 17.7781 30.9998 18.9831C31.0107 19.9216 30.6253 20.6069 29.7794 21.0241C29.3559 21.2324 29.0506 21.5202 29.0506 22.034C29.0506 22.5479 29.3548 22.8367 29.7783 23.0456C30.6247 23.4622 31.0101 24.1476 30.9998 25.0855C30.9865 26.3106 30.9998 27.5363 30.9952 28.7614C30.9882 30.1528 30.1355 30.9946 28.725 30.9963C24.3204 31.0006 19.9155 31.0011 15.5105 30.9981ZM12.3162 29.0957C15.5347 29.0957 18.7526 29.0825 21.9706 29.1078C22.5519 29.1124 22.7196 28.9397 22.7196 28.3597C22.6977 24.1821 22.7086 20.0039 22.7075 15.8257C22.7075 15.0391 22.7017 15.0333 21.8882 15.0328C18.2475 15.0328 14.607 15.0328 10.9668 15.0328C8.19135 15.0328 5.41592 15.042 2.63991 15.0259C2.10061 15.0224 1.87821 15.1956 1.89953 15.7578C1.9341 16.7009 1.9243 17.6464 1.89953 18.5895C1.88973 19.0027 2.04184 19.238 2.4008 19.4526C4.46523 20.6743 4.46062 23.4001 2.39101 24.6234C2.02744 24.8387 1.89031 25.0838 1.90011 25.4906C1.92142 26.394 1.90529 27.298 1.90644 28.202C1.90644 29.0594 1.94389 29.0974 2.78108 29.098C5.96002 29.0972 9.13839 29.0965 12.3162 29.0957ZM23.7354 13.0659C24.1571 13.0659 24.5852 13.0193 24.9995 13.0757C25.8061 13.1862 26.3708 12.8674 26.8761 12.2701C27.1527 11.9433 27.2114 11.7384 26.8824 11.4242C26.1415 10.7176 25.419 9.99085 24.7085 9.2543C24.4383 8.97406 24.1842 8.91882 23.7999 9.01952C21.4785 9.6289 19.508 7.6172 20.1521 5.29764C20.2461 4.95871 20.2005 4.74293 19.9516 4.50355C19.2291 3.80728 18.5112 3.10583 17.8232 2.37446C17.4326 1.95784 17.152 2.01596 16.7861 2.40035C15.9795 3.24163 15.1659 4.07543 14.3086 4.86434C13.8678 5.27059 13.8384 5.51803 14.2907 5.95766C16.1489 7.76163 18.0249 9.55352 19.7776 11.457C20.8862 12.6597 22.0115 13.5096 23.7354 13.0659ZM24.6895 22.0317C24.6895 24.1608 24.7033 26.2899 24.6791 28.419C24.6734 28.9536 24.8555 29.1204 25.3786 29.1026C26.3835 29.0692 27.3906 29.0813 28.3966 29.098C28.8685 29.1055 29.1082 28.9507 29.099 28.4409C29.08 27.4166 29.0851 26.3912 29.099 25.3669C29.1036 25.0216 28.9549 24.8277 28.6634 24.6522C26.5212 23.3627 26.5143 20.6915 28.6524 19.4158C28.9716 19.2259 29.1053 19.0096 29.1001 18.6459C29.0851 17.6619 29.0771 16.6762 29.1001 15.6928C29.1128 15.1876 28.9031 15.0155 28.4202 15.0241C27.4142 15.0425 26.4077 15.0529 25.4028 15.0201C24.8416 15.0017 24.6728 15.2163 24.6786 15.7595C24.7028 17.8518 24.6895 19.9418 24.6895 22.0317ZM18.5723 13.036C18.3902 12.8358 18.3009 12.7299 18.2035 12.6332C16.4116 10.8419 14.6099 9.06095 12.8336 7.2541C12.4804 6.89503 12.2701 6.89906 11.9186 7.2541C10.1284 9.07476 8.31177 10.8701 6.50719 12.677C6.41558 12.769 6.26808 12.8352 6.28652 13.0354L18.5723 13.036Z" fill="#2639FF"/>
<path d="M13.1792 26.5091C11.1499 26.5091 9.12007 26.4953 7.09079 26.5183C6.53766 26.5241 6.29106 26.3762 6.30316 25.776C6.33139 24.334 6.27896 24.5325 7.53444 24.5302C11.4524 24.5237 15.3704 24.5237 19.2884 24.5302C20.1146 24.5302 20.1164 24.5354 20.1204 25.3767C20.1256 26.5103 20.1256 26.5103 18.9646 26.5103L13.1792 26.5091Z" fill="#2639FF"/>
<path d="M13.213 22.8822C11.201 22.8822 9.18905 22.8822 7.17705 22.8822C6.3583 22.8822 6.32085 22.839 6.31279 22.038C6.30242 20.9079 6.30242 20.9073 7.40752 20.9073C11.3516 20.9073 15.2951 20.9073 19.2381 20.9073C20.1145 20.9073 20.1145 20.9073 20.1179 21.7653C20.1107 21.8856 20.1107 22.0063 20.1179 22.1266C20.1934 22.7084 19.9364 22.8983 19.3631 22.8914C17.3177 22.8678 15.2654 22.8822 13.213 22.8822Z" fill="#2639FF"/>
<path d="M13.2079 17.2867C15.2585 17.2867 17.3097 17.3028 19.3603 17.2764C19.9226 17.2689 20.1456 17.4231 20.1341 18.0181C20.1099 19.2524 20.1381 19.2535 18.874 19.2535C14.9733 19.2535 11.0728 19.2518 7.17248 19.2484C6.88727 19.2484 6.4707 19.3634 6.38139 18.9998C6.25406 18.4819 6.19644 17.9174 6.43901 17.411C6.54099 17.1975 6.84233 17.2902 7.05609 17.2896C9.1065 17.2846 11.1571 17.2836 13.2079 17.2867Z" fill="#2639FF"/>
</svg>
