<svg width="25" height="33" viewBox="0 0 25 33" fill="none" xmlns="http://www.w3.org/2000/svg">
<path d="M2.61582 18.0499L2.61586 18.05C5.55731 22.6352 8.49962 27.22 11.4428 31.8044C11.7947 32.3528 12.2076 32.6736 12.6568 32.6709C13.1062 32.6681 13.5146 32.3419 13.8588 31.7866C16.7369 27.1628 19.6041 22.5333 22.4602 17.898C23.5437 16.1398 24.1328 14.2306 24.1033 12.1618C24.0998 11.5852 24.06 11.0092 23.984 10.4373L23.9841 10.4373L23.9836 10.4343C23.0447 4.30505 17.1226 0.0560331 10.7992 0.974996L10.7991 0.975001C2.50552 2.18198 -1.80824 11.1468 2.61582 18.0499ZM12.44 29.0608L12.44 29.0607C11.0522 26.8824 9.65689 24.7041 8.26106 22.5251C6.98554 20.5339 5.70961 18.542 4.4387 16.5489C3.59555 15.2249 3.2646 13.742 3.17752 12.2483C3.2526 6.88143 7.45626 3.48307 11.7138 3.1473C16.9911 2.73892 21.3553 6.64116 21.7289 11.2835L21.7291 11.2849C21.903 13.2185 21.4343 15.1557 20.3907 16.8146L20.3902 16.8154C17.868 20.8822 15.3514 24.952 12.8402 29.0245L12.84 29.0248C12.7835 29.1169 12.7386 29.1862 12.6982 29.235C12.6784 29.2589 12.6627 29.2741 12.6507 29.2834C12.6444 29.2883 12.64 29.2908 12.6376 29.292C12.6327 29.2902 12.6231 29.2852 12.6074 29.2724C12.5681 29.2403 12.5135 29.1763 12.44 29.0608ZM12.6415 29.2928C12.6416 29.293 12.6408 29.293 12.639 29.2924C12.6405 29.2924 12.6414 29.2927 12.6415 29.2928Z" fill="#2639FF" stroke="#2639FF" stroke-width="0.3"/>
<path d="M18.3888 12.1439C18.3822 15.3412 15.7786 17.8135 12.4582 17.8135C9.13368 17.8135 6.57286 15.2954 6.58589 12.0277C6.59763 8.84814 9.22875 6.37033 12.55 6.38288M18.3888 12.1439C18.3966 8.92433 15.8247 6.393 12.55 6.38288M18.3888 12.1439L18.2388 12.1436L18.3888 12.1439ZM12.55 6.38288L12.5495 6.53288L12.5499 6.38288C12.55 6.38288 12.55 6.38288 12.55 6.38288ZM12.4634 8.61362L12.4635 8.61362C14.3942 8.59359 16.0814 10.2194 16.0862 12.0912V12.0913C16.0923 13.9355 14.4605 15.5378 12.5361 15.5791C10.6167 15.6203 8.91856 14.0095 8.8846 12.1323L8.88459 12.132C8.84831 10.2872 10.5164 8.6325 12.4634 8.61362ZM12.462 8.46363C10.4379 8.48325 8.69658 10.2006 8.73462 12.135C8.77013 14.0976 10.5393 15.772 12.5393 15.7291C14.5393 15.6861 16.2426 14.0228 16.2362 12.0908L12.462 8.46363Z" fill="#2639FF" stroke="#2639FF" stroke-width="0.3"/>
</svg>
