<svg width="28" height="20" viewBox="0 0 28 20" fill="none" xmlns="http://www.w3.org/2000/svg">
<path d="M14.047 1.08026L15.1963 3.04959L17.4522 3.58992L15.8877 5.26429L16.0583 7.52437L13.941 6.59034L11.7902 7.44622L12.0465 5.19412L10.5479 3.46303L12.8227 3.00589L14.047 1.08026Z" fill="white"/>
<path d="M12.9167 9.21047C12.8965 11.7777 12.9663 17.8054 14.0001 20C15.034 17.8075 15.1038 11.7798 15.0835 9.21257C15.0672 7.15417 12.9327 7.25753 12.9167 9.21047Z" fill="#F37121"/>
<path d="M5.61705 9.987C5.61705 9.987 11.9821 12.153 11.9756 19.6345C11.9756 19.6345 8.88659 13.0488 4.14209 12.2269L5.61705 9.987Z" fill="white"/>
<path d="M2.97576 11.8172L3.37896 10.194L4.86383 9.36506L3.40653 8.48859L3.05588 6.85455L1.75151 7.93522L0.0504001 7.75623L0.701294 9.30035L0 10.8235L1.70714 10.6961L2.97576 11.8172Z" fill="#F37121"/>
<path d="M22.3834 9.987C22.3834 9.987 16.0183 12.153 16.0274 19.6345C16.0274 19.6345 19.116 13.0488 23.8605 12.2269L22.3834 9.987Z" fill="white"/>
<path d="M25.0241 11.8172L24.6209 10.194L23.1365 9.36506L24.5933 8.48859L24.944 6.85455L26.2479 7.93522L27.9495 7.75623L27.2986 9.30035L27.9999 10.8235L26.2927 10.6961L25.0241 11.8172Z" fill="#F37121"/>
<path d="M6.12079 0L6.68208 0.961344L7.78356 1.22521L7.01981 2.04286L7.10294 3.14622L6.0691 2.69033L5.01931 3.10798L5.14466 2.0084L4.41235 1.16344L5.52331 0.939915L6.12079 0Z" fill="#F37121"/>
<path d="M21.925 0L22.4863 0.961344L23.5878 1.22521L22.824 2.04286L22.9071 3.14622L21.8733 2.69033L20.8235 3.10798L20.9489 2.0084L20.2166 1.16344L21.3275 0.939915L21.925 0Z" fill="#F37121"/>
</svg>
